{"title":"Sukhaant [2009] Marathi Xvid 1 CD DVDRip MDG @Mastitorrents","uid":5882880,"size":724261616,"categoryP":"video","categoryS":"movies","magnet":"?xt=urn:btih:b74df8590da6f8e958a92c01092cd24f85df298e&amp;dn=Sukhaant+%5B2009%5D+Marathi+Xvid+1+CD+DVDRip+MDG+%40Mastitorrents&amp;tr=udp%3A%2F%2Ftracker.openbittorrent.com%3A80&amp;tr=udp%3A%2F%2Fopen.demonii.com%3A1337&amp;tr=udp%3A%2F%2Ftracker.coppersurfer.tk%3A6969&amp;tr=udp%3A%2F%2Fexodus.desync.com%3A6969","seeders":0,"leechers":1,"uploader":"amanrulz","files":1,"time":1286900064,"description":"mastitorrents.com\n &lt;a href=&quot;\nhttp://mastitorrents.com/forums/torrents.php&quot; rel=&quot;nofollow&quot; target=&quot;_NEW&quot;&gt;\nhttp://mastitorrents.com/forums/torrents.php&lt;/a&gt;\n\nInfo -\nCast -\nAtul Kulkarn\nJyoti Chandekar\nKavita Lad-Medhekar\nTushar Dalvi\n\nPlot -\nSukhaant? deals with the controversial subject of mercy killing. It discusses the right of people with no hope of living to die honorably. Atul Kulkarni plays the protagonist, whose mother is afflicted with a grave ailment. She asks her son to give her the right to die with her own choice. Having made up her mind, the mother forces her son to seek court approval for her self-willed death.\n\nMedia Info -\nGeneral\nName : Sukhaant\nFormat : AVI\nFormat/Info : Audio Video Interleave\nFormat profile : OpenDML\nFile size : 691 MiB\nDuration : 1h 35mn\nOverall bit rate : 1 007 Kbps\nWriting application : AVI-Mux GUI 1.17.8.3, Feb 16 201019:42:50\n\nVideo\nID : 0\nFormat : MPEG-4 Visual\nFormat profile : Advanced Simple@L5\nFormat settings, BVOP : Yes\nFormat settings, QPel : No\nFormat settings, GMC : No warppoints\nFormat settings, Matrix : Default (H.263)\nCodec ID : XVID\nCodec ID/Hint : XviD\nDuration : 1h 35mn\nBit rate : 940 Kbps\nWidth : 640 pixels\nHeight : 272 pixels\nDisplay aspect ratio : 2.35:1\nFrame rate : 23.976 fps\nColor space : YUV\nChroma subsampling : 4:2:0\nBit depth : 8 bits\nScan type : Progressive\nBits/(Pixel*Frame) : 0.225\nStream size : 644 MiB (93%)\nWriting library : XviD 1.2.1 (UTC 2008-12-04)\n\nAudio\nID : 1\nFormat : MPEG Audio\nFormat version : Version 2\nFormat profile : Layer 3\nMode : Joint stereo\nMode extension : MS Stereo\nCodec ID : 55\nCodec ID/Hint : MP3\nDuration : 1h 35mn\nBit rate mode : Constant\nBit rate : 64.0 Kbps\nChannel(s) : 2 channels\nSampling rate : 24.0 KHz\nStream size : 43.9 MiB (6%)\nAlignment : Aligned on interleaves\nInterleave, duration : 796 ms (19.08 video frames)\nInterleave, preload duration : 216 ms","torrent":{"xt":"urn:btih:b74df8590da6f8e958a92c01092cd24f85df298e","amp;dn":"Sukhaant+%5B2009%5D+Marathi+Xvid+1+CD+DVDRip+MDG+%40Mastitorrents","amp;tr":["udp%3A%2F%2Ftracker.openbittorrent.com%3A80","udp%3A%2F%2Fopen.demonii.com%3A1337","udp%3A%2F%2Ftracker.coppersurfer.tk%3A6969","udp%3A%2F%2Fexodus.desync.com%3A6969"],"infoHash":"b74df8590da6f8e958a92c01092cd24f85df298e","infoHashBuffer":{"type":"Buffer","data":[183,77,248,89,13,166,248,233,88,169,44,1,9,44,210,79,133,223,41,142]},"announce":[],"urlList":[]}}